<svg width="68" height="68" viewBox="0 0 68 68" fill="none" xmlns="http://www.w3.org/2000/svg">
<path d="M27 41L34 34M34 34L41 27M34 34L27 27M34 34L41 41M65.5 34C65.5 38.1366 64.6852 42.2328 63.1022 46.0545C61.5192 49.8763 59.1989 53.3488 56.2739 56.2739C53.3488 59.1989 49.8763 61.5192 46.0545 63.1022C42.2328 64.6852 38.1366 65.5 34 65.5C29.8634 65.5 25.7672 64.6852 21.9455 63.1022C18.1237 61.5192 14.6512 59.1989 11.7261 56.2739C8.80109 53.3488 6.48082 49.8763 4.89779 46.0545C3.31477 42.2328 2.5 38.1366 2.5 34C2.5 25.6457 5.81874 17.6335 11.7261 11.7261C17.6335 5.81874 25.6457 2.5 34 2.5C42.3543 2.5 50.3665 5.81874 56.2739 11.7261C62.1813 17.6335 65.5 25.6457 65.5 34Z" stroke="#FF3B30" stroke-width="4" stroke-linecap="round" stroke-linejoin="round"/>
</svg>
