<svg width="20" height="18" viewBox="0 0 20 18" fill="none" xmlns="http://www.w3.org/2000/svg">
<path d="M10 16.7997C10 16.7997 19 12.4897 19 5.93971C18.9922 4.86945 18.6217 3.83347 17.9489 3.00104C17.2762 2.16862 16.341 1.58896 15.2962 1.35678C14.2514 1.1246 13.1587 1.25363 12.1968 1.72279C11.2348 2.19194 10.4603 2.97348 10 3.93971C9.53965 2.97348 8.76522 2.19194 7.80324 1.72279C6.84125 1.25363 5.7486 1.1246 4.7038 1.35678C3.65899 1.58896 2.72381 2.16862 2.05107 3.00104C1.37833 3.83347 1.00779 4.86945 1 5.93971C1 12.4897 10 16.7997 10 16.7997Z" stroke="black" stroke-linecap="round" stroke-linejoin="round"/>
</svg>
