<svg width="92" height="80" viewBox="0 0 92 80" fill="none" xmlns="http://www.w3.org/2000/svg">
<path fill-rule="evenodd" clip-rule="evenodd" d="M11.7999 0.0996094C8.77643 0.0996094 5.8768 1.30068 3.73888 3.43859C1.60097 5.57651 0.399902 8.47614 0.399902 11.4996V68.4996C0.399902 71.5231 1.60097 74.4227 3.73888 76.5606C5.8768 78.6985 8.77643 79.8996 11.7999 79.8996H80.1999C83.2234 79.8996 86.123 78.6985 88.2609 76.5606C90.3988 74.4227 91.5999 71.5231 91.5999 68.4996V11.4996C91.5999 8.47614 90.3988 5.57651 88.2609 3.43859C86.123 1.30068 83.2234 0.0996094 80.1999 0.0996094H11.7999ZM80.1999 68.4996H11.7999L34.5999 22.8996L51.6999 57.0996L63.0999 34.2996L80.1999 68.4996Z" fill="#494848" fill-opacity="0.89"/>
</svg>
