<svg width="18" height="15" viewBox="0 0 18 15" fill="none" xmlns="http://www.w3.org/2000/svg">
<path d="M3.86768 0.583344H1.11768M4.08767 0.583344L6.06768 7.77001C6.23294 8.33674 6.57619 8.83524 7.04666 9.19182C7.51714 9.54839 8.08987 9.7441 8.68018 9.75001H16.6918V0.583344H4.08767ZM10.2843 12.9583C10.2843 13.7177 9.66873 14.3333 8.90934 14.3333C8.14995 14.3333 7.53434 13.7177 7.53434 12.9583C7.53434 12.199 8.14995 11.5833 8.90934 11.5833C9.66873 11.5833 10.2843 12.199 10.2843 12.9583ZM16.701 12.9583C16.701 13.7177 16.0854 14.3333 15.326 14.3333C14.5666 14.3333 13.951 13.7177 13.951 12.9583C13.951 12.199 14.5666 11.5833 15.326 11.5833C16.0854 11.5833 16.701 12.199 16.701 12.9583Z" stroke="#360270" stroke-linecap="round" stroke-linejoin="round"/>
</svg>
