<svg width="18" height="16" viewBox="0 0 18 16" fill="none" xmlns="http://www.w3.org/2000/svg">
<path d="M9 15.15C9 15.15 17.25 11.1992 17.25 5.19499C17.2429 4.21392 16.9032 3.26427 16.2865 2.50121C15.6698 1.73815 14.8126 1.2068 13.8549 0.99397C12.8971 0.78114 11.8955 0.899417 11.0137 1.32947C10.1319 1.75953 9.42198 2.47595 9 3.36166C8.57802 2.47595 7.86812 1.75953 6.9863 1.32947C6.10448 0.899417 5.10288 0.78114 4.14515 0.99397C3.18741 1.2068 2.33016 1.73815 1.71348 2.50121C1.0968 3.26427 0.757143 4.21392 0.75 5.19499C0.75 11.1992 9 15.15 9 15.15Z" stroke="#360270" stroke-linecap="round" stroke-linejoin="round"/>
</svg>
