<svg width="20" height="18" viewBox="0 0 20 18" fill="none" xmlns="http://www.w3.org/2000/svg">
<path d="M11.7189 15.2563C11.1523 15.3634 10.5769 15.4171 10.0002 15.4167C5.89536 15.4167 2.42119 12.7189 1.25244 9C1.5671 7.99909 2.05177 7.05984 2.68519 6.22342M8.05503 7.05575C8.57079 6.53998 9.27033 6.25023 9.99973 6.25023C10.7291 6.25023 11.4287 6.53998 11.9444 7.05575C12.4602 7.57152 12.75 8.27105 12.75 9.00046C12.75 9.72987 12.4602 10.4294 11.9444 10.9452M8.05503 7.05575L11.9444 10.9452M8.05503 7.05575L11.9435 10.9433M11.9444 10.9452L14.9612 13.961M8.05686 7.05667L5.04103 4.04083M5.04103 4.04083L1.75019 0.75M5.04103 4.04083C6.51902 3.0871 8.2412 2.58095 10.0002 2.58333C14.105 2.58333 17.5792 5.28108 18.7479 9C18.1027 11.0446 16.7628 12.7992 14.9603 13.9601M5.04103 4.04083L14.9603 13.9601M14.9603 13.9601L18.2502 17.25" stroke="#360270" stroke-linecap="round" stroke-linejoin="round"/>
</svg>
