<svg width="19" height="17" viewBox="0 0 19 17" fill="none" xmlns="http://www.w3.org/2000/svg">
<path d="M4.30957 1H1.30957M4.54957 0.999999L6.70957 8.84C6.88986 9.45825 7.26431 10.0021 7.77756 10.3911C8.29081 10.78 8.91561 10.9935 9.55957 11H18.2996V0.999999H4.54957ZM11.3096 14.5C11.3096 15.3284 10.638 16 9.80957 16C8.98114 16 8.30957 15.3284 8.30957 14.5C8.30957 13.6716 8.98114 13 9.80957 13C10.638 13 11.3096 13.6716 11.3096 14.5ZM18.3096 14.5C18.3096 15.3284 17.638 16 16.8096 16C15.9811 16 15.3096 15.3284 15.3096 14.5C15.3096 13.6716 15.9811 13 16.8096 13C17.638 13 18.3096 13.6716 18.3096 14.5Z" stroke="white" stroke-linecap="round" stroke-linejoin="round"/>
</svg>
