<svg width="20" height="18" viewBox="0 0 20 18" fill="none" xmlns="http://www.w3.org/2000/svg">
<path d="M10 16.8C10 16.8 19 12.49 19 5.94C18.9922 4.86974 18.6217 3.83376 17.9489 3.00134C17.2762 2.16891 16.341 1.58925 15.2962 1.35707C14.2514 1.12489 13.1587 1.25392 12.1968 1.72308C11.2348 2.19223 10.4603 2.97377 10 3.94C9.53965 2.97377 8.76522 2.19223 7.80324 1.72308C6.84125 1.25392 5.7486 1.12489 4.7038 1.35707C3.65899 1.58925 2.72381 2.16891 2.05107 3.00134C1.37833 3.83376 1.00779 4.86974 1 5.94C1 12.49 10 16.8 10 16.8Z" stroke="white" stroke-linecap="round" stroke-linejoin="round"/>
</svg>
